<svg width="200" height="38" viewBox="0 0 200 38" fill="none" xmlns="http://www.w3.org/2000/svg">
<rect width="200" height="38" fill="#1890FF"/>
<path d="M53.9229 12.9091H52.261L57.0678 26H58.7042L63.511 12.9091H61.8491L57.9627 23.929H57.8093L53.9229 12.9091ZM65.3455 26H66.854V16.1818H65.3455V26ZM66.1126 14.5455C66.7006 14.5455 67.1864 14.0852 67.1864 13.5227C67.1864 12.9602 66.7006 12.5 66.1126 12.5C65.5245 12.5 65.0387 12.9602 65.0387 13.5227C65.0387 14.0852 65.5245 14.5455 66.1126 14.5455ZM73.7335 26.2045C75.7278 26.2045 77.1852 25.2074 77.6454 23.7244L76.188 23.3153C75.8045 24.3381 74.916 24.8494 73.7335 24.8494C71.9629 24.8494 70.742 23.7053 70.6717 21.6023H77.7988V20.9631C77.7988 17.3068 75.6255 16.054 73.5801 16.054C70.921 16.054 69.1568 18.1506 69.1568 21.1676C69.1568 24.1847 70.8954 26.2045 73.7335 26.2045ZM70.6717 20.2983C70.774 18.7706 71.8542 17.4091 73.5801 17.4091C75.2164 17.4091 76.2647 18.6364 76.2647 20.2983H70.6717ZM82.318 26H83.801L85.9487 18.4574H86.1021L88.2498 26H89.7328L92.7243 16.1818H91.139L89.0169 23.6733H88.9146L86.8436 16.1818H85.2328L83.1362 23.6989H83.0339L80.9118 16.1818H79.3265L82.318 26ZM104.025 26C108.014 26 110.264 23.5199 110.264 19.429C110.264 15.3636 108.014 12.9091 104.204 12.9091H99.9856V26H104.025ZM101.571 24.5938V14.3153H104.102C107.17 14.3153 108.73 16.2585 108.73 19.429C108.73 22.625 107.17 24.5938 103.923 24.5938H101.571ZM116.835 26.2045C118.829 26.2045 120.287 25.2074 120.747 23.7244L119.29 23.3153C118.906 24.3381 118.018 24.8494 116.835 24.8494C115.064 24.8494 113.844 23.7053 113.773 21.6023H120.9V20.9631C120.9 17.3068 118.727 16.054 116.682 16.054C114.023 16.054 112.258 18.1506 112.258 21.1676C112.258 24.1847 113.997 26.2045 116.835 26.2045ZM113.773 20.2983C113.876 18.7706 114.956 17.4091 116.682 17.4091C118.318 17.4091 119.366 18.6364 119.366 20.2983H113.773ZM123.195 26H124.704V19.8636C124.704 18.4254 125.752 17.4091 126.928 17.4091C128.072 17.4091 128.871 18.157 128.871 19.2756V26H130.405V19.608C130.405 18.3423 131.198 17.4091 132.579 17.4091C133.653 17.4091 134.573 17.978 134.573 19.429V26H136.081V19.429C136.081 17.1214 134.841 16.054 133.09 16.054C131.684 16.054 130.655 16.6996 130.15 17.7159H130.047C129.562 16.6676 128.705 16.054 127.414 16.054C126.135 16.054 125.189 16.6676 124.78 17.7159H124.653V16.1818H123.195V26ZM142.828 26.2045C145.487 26.2045 147.277 24.1847 147.277 21.142C147.277 18.0739 145.487 16.054 142.828 16.054C140.169 16.054 138.379 18.0739 138.379 21.142C138.379 24.1847 140.169 26.2045 142.828 26.2045ZM142.828 24.8494C140.808 24.8494 139.888 23.1108 139.888 21.142C139.888 19.1733 140.808 17.4091 142.828 17.4091C144.848 17.4091 145.769 19.1733 145.769 21.142C145.769 23.1108 144.848 24.8494 142.828 24.8494Z" fill="white"/>
</svg>
