<svg width="257" height="38" viewBox="0 0 257 38" fill="none" xmlns="http://www.w3.org/2000/svg">
<rect width="257" height="38" fill="#1890FF"/>
<path d="M58.5763 16.1818H60.1104C60.0401 14.2067 58.2184 12.7301 55.6871 12.7301C53.1815 12.7301 51.2127 14.1875 51.2127 16.3864C51.2127 18.1506 52.4911 19.1989 54.5366 19.7869L56.1474 20.2472C57.5281 20.6307 58.7553 21.1165 58.7553 22.4205C58.7553 23.8523 57.3746 24.7983 55.5593 24.7983C53.9996 24.7983 52.619 24.108 52.4911 22.625H50.8548C51.0082 24.7727 52.7468 26.2301 55.5593 26.2301C58.5763 26.2301 60.2894 24.5682 60.2894 22.446C60.2894 19.9915 57.9627 19.1989 56.6076 18.8409L55.2781 18.483C54.3065 18.2273 52.7468 17.7159 52.7468 16.3097C52.7468 15.0568 53.8974 14.1364 55.636 14.1364C57.2212 14.1364 58.4229 14.8906 58.5763 16.1818ZM62.6912 26H64.1998V16.1818H62.6912V26ZM63.4583 14.5455C64.0463 14.5455 64.5321 14.0852 64.5321 13.5227C64.5321 12.9602 64.0463 12.5 63.4583 12.5C62.8702 12.5 62.3844 12.9602 62.3844 13.5227C62.3844 14.0852 62.8702 14.5455 63.4583 14.5455ZM70.9258 29.8864C73.2781 29.8864 75.1701 28.8125 75.1701 26.2812V16.1818H73.7127V17.7415H73.5593C73.2269 17.2301 72.6133 16.054 70.6957 16.054C68.2156 16.054 66.5025 18.0227 66.5025 21.0398C66.5025 24.108 68.2923 25.8466 70.6701 25.8466C72.5877 25.8466 73.2013 24.7216 73.5337 24.1847H73.6616V26.179C73.6616 27.8153 72.511 28.5568 70.9258 28.5568C69.1424 28.5568 68.516 27.6172 68.1133 27.0739L66.9116 27.9176C67.5252 28.9467 68.7333 29.8864 70.9258 29.8864ZM70.8746 24.4915C68.9826 24.4915 68.011 23.0597 68.011 21.0142C68.011 19.0199 68.957 17.4091 70.8746 17.4091C72.7156 17.4091 73.6871 18.892 73.6871 21.0142C73.6871 23.1875 72.69 24.4915 70.8746 24.4915ZM79.44 20.0938C79.44 18.3807 80.5011 17.4091 81.9457 17.4091C83.3455 17.4091 84.1957 18.3232 84.1957 19.8636V26H85.7042V19.7614C85.7042 17.2557 84.3683 16.054 82.3803 16.054C80.8974 16.054 79.9769 16.7188 79.5167 17.7159H79.3888V16.1818H77.9315V26H79.44V20.0938ZM99.7108 21.9858C99.7108 23.8267 98.3045 24.6705 97.1795 24.6705C95.9267 24.6705 95.0318 23.75 95.0318 22.3182V16.1818H93.5233V22.4205C93.5233 24.9261 94.8528 26.1278 96.6937 26.1278C98.1767 26.1278 99.1483 25.3352 99.6085 24.3381H99.7108V26H101.219V16.1818H99.7108V21.9858ZM103.982 29.6818H105.491V24.4915H105.619C105.951 25.0284 106.59 26.2045 108.482 26.2045C110.937 26.2045 112.65 24.2358 112.65 21.1165C112.65 18.0227 110.937 16.054 108.457 16.054C106.539 16.054 105.951 17.2301 105.619 17.7415H105.44V16.1818H103.982V29.6818ZM105.465 21.0909C105.465 18.892 106.437 17.4091 108.278 17.4091C110.195 17.4091 111.141 19.0199 111.141 21.0909C111.141 23.1875 110.17 24.8494 108.278 24.8494C106.462 24.8494 105.465 23.3153 105.465 21.0909ZM124.283 16.1818H122.187V13.8295H120.678V16.1818H119.195V17.4602H120.678V23.5966C120.678 25.3097 122.059 26.1278 123.337 26.1278C123.9 26.1278 124.258 26.0256 124.462 25.9489L124.156 24.5938C124.028 24.6193 123.823 24.6705 123.491 24.6705C122.826 24.6705 122.187 24.4659 122.187 23.1875V17.4602H124.283V16.1818ZM130.436 26.2045C133.095 26.2045 134.885 24.1847 134.885 21.142C134.885 18.0739 133.095 16.054 130.436 16.054C127.777 16.054 125.987 18.0739 125.987 21.142C125.987 24.1847 127.777 26.2045 130.436 26.2045ZM130.436 24.8494C128.416 24.8494 127.495 23.1108 127.495 21.142C127.495 19.1733 128.416 17.4091 130.436 17.4091C132.456 17.4091 133.376 19.1733 133.376 21.142C133.376 23.1108 132.456 24.8494 130.436 24.8494ZM142.454 26H144.04V21.2188H146.903C149.952 21.2188 151.327 19.3651 151.327 17.0511C151.327 14.7372 149.952 12.9091 146.878 12.9091H142.454V26ZM144.04 19.8125V14.3153H146.827C148.955 14.3153 149.767 15.4787 149.767 17.0511C149.767 18.6236 148.955 19.8125 146.852 19.8125H144.04ZM156.565 26.2301C158.278 26.2301 159.173 25.3097 159.48 24.6705H159.556V26H161.065V19.5312C161.065 16.4119 158.687 16.054 157.434 16.054C155.951 16.054 154.264 16.5653 153.497 18.3551L154.928 18.8665C155.261 18.1506 156.047 17.3835 157.485 17.3835C158.872 17.3835 159.556 18.1186 159.556 19.3778V19.429C159.556 20.1577 158.815 20.0938 157.025 20.3239C155.203 20.5604 153.215 20.9631 153.215 23.2131C153.215 25.1307 154.698 26.2301 156.565 26.2301ZM156.795 24.875C155.593 24.875 154.724 24.3381 154.724 23.2898C154.724 22.1392 155.772 21.7812 156.948 21.6278C157.588 21.5511 159.301 21.3722 159.556 21.0653V22.446C159.556 23.6733 158.585 24.875 156.795 24.875ZM163.818 29.6818H165.327V24.4915H165.455C165.787 25.0284 166.426 26.2045 168.318 26.2045C170.773 26.2045 172.486 24.2358 172.486 21.1165C172.486 18.0227 170.773 16.054 168.293 16.054C166.375 16.054 165.787 17.2301 165.455 17.7415H165.276V16.1818H163.818V29.6818ZM165.301 21.0909C165.301 18.892 166.273 17.4091 168.114 17.4091C170.031 17.4091 170.977 19.0199 170.977 21.0909C170.977 23.1875 170.006 24.8494 168.114 24.8494C166.298 24.8494 165.301 23.3153 165.301 21.0909ZM178.903 26.2045C180.898 26.2045 182.355 25.2074 182.815 23.7244L181.358 23.3153C180.974 24.3381 180.086 24.8494 178.903 24.8494C177.133 24.8494 175.912 23.7053 175.842 21.6023H182.969V20.9631C182.969 17.3068 180.795 16.054 178.75 16.054C176.091 16.054 174.327 18.1506 174.327 21.1676C174.327 24.1847 176.065 26.2045 178.903 26.2045ZM175.842 20.2983C175.944 18.7706 177.024 17.4091 178.75 17.4091C180.386 17.4091 181.435 18.6364 181.435 20.2983H175.842ZM185.263 26H186.772V19.7869C186.772 18.4574 187.82 17.4858 189.252 17.4858C189.655 17.4858 190.07 17.5625 190.173 17.5881V16.054C190 16.0412 189.604 16.0284 189.38 16.0284C188.204 16.0284 187.181 16.6932 186.823 17.6648H186.721V16.1818H185.263V26ZM195.651 26.2045C197.824 26.2045 199.256 24.875 199.511 23.1364H198.003C197.722 24.2102 196.827 24.8494 195.651 24.8494C193.861 24.8494 192.71 23.3665 192.71 21.0909C192.71 18.8665 193.886 17.4091 195.651 17.4091C196.98 17.4091 197.773 18.2273 198.003 19.1222H199.511C199.256 17.2812 197.696 16.054 195.625 16.054C192.966 16.054 191.202 18.1506 191.202 21.142C191.202 24.0824 192.889 26.2045 195.651 26.2045ZM207.904 21.9858C207.904 23.8267 206.498 24.6705 205.373 24.6705C204.12 24.6705 203.225 23.75 203.225 22.3182V16.1818H201.717V22.4205C201.717 24.9261 203.046 26.1278 204.887 26.1278C206.37 26.1278 207.342 25.3352 207.802 24.3381H207.904V26H209.413V16.1818H207.904V21.9858ZM212.176 29.6818H213.684V24.4915H213.812C214.144 25.0284 214.784 26.2045 216.676 26.2045C219.13 26.2045 220.843 24.2358 220.843 21.1165C220.843 18.0227 219.13 16.054 216.65 16.054C214.732 16.054 214.144 17.2301 213.812 17.7415H213.633V16.1818H212.176V29.6818ZM213.659 21.0909C213.659 18.892 214.63 17.4091 216.471 17.4091C218.389 17.4091 219.335 19.0199 219.335 21.0909C219.335 23.1875 218.363 24.8494 216.471 24.8494C214.656 24.8494 213.659 23.3153 213.659 21.0909ZM230.099 18.3807C229.626 16.9872 228.565 16.054 226.622 16.054C224.551 16.054 223.017 17.2301 223.017 18.892C223.017 20.2472 223.822 21.1548 225.624 21.5767L227.261 21.9602C228.252 22.1903 228.718 22.6634 228.718 23.3409C228.718 24.1847 227.823 24.875 226.417 24.875C225.183 24.875 224.41 24.3445 224.142 23.2898L222.71 23.6477C223.061 25.3161 224.436 26.2045 226.443 26.2045C228.725 26.2045 230.278 24.9581 230.278 23.2642C230.278 21.8963 229.421 21.0334 227.67 20.6051L226.213 20.2472C225.049 19.9595 224.525 19.5696 224.525 18.8153C224.525 17.9716 225.42 17.358 226.622 17.358C227.938 17.358 228.482 18.0866 228.744 18.7642L230.099 18.3807Z" fill="white"/>
<path d="M42 15.7199C42 27.0862 27.9093 26.7362 27.9093 26.7362L22.0002 32.6458C22.0002 32.6458 22.0002 22.1269 22.0002 12.9134L28.8388 5.01624H28.8526C33.2048 5.15301 42 5.1832 42 15.7199Z" fill="white"/>
<path d="M28.8529 4.99997V12.9132H22.0005L28.839 5.01596L28.8529 4.99997Z" fill="#D0D0D0"/>
<path d="M22.0002 14.3573C22.0002 13.8742 22.0002 13.3928 22.0002 12.9132L28.8524 12.915L22 14.3573" fill="#ECECEC"/>
</svg>
