<svg width="2500" height="190" viewBox="0 0 2500 190" fill="none" xmlns="http://www.w3.org/2000/svg">
<path d="M185.27 64.8001C190.487 64.8001 195.017 65.6601 198.858 67.3801C202.757 69.1001 205.738 71.5654 207.802 74.7761C209.866 77.9867 210.898 81.7994 210.898 86.2141C210.898 90.5714 209.866 94.3841 207.802 97.6521C205.738 100.863 202.757 103.328 198.858 105.048C195.017 106.768 190.487 107.628 185.27 107.628H171.682V125H160.502V64.8001H185.27ZM184.754 98.1681C189.627 98.1681 193.325 97.1361 195.848 95.0721C198.371 93.0081 199.632 90.0554 199.632 86.2141C199.632 82.3727 198.371 79.4201 195.848 77.3561C193.325 75.2921 189.627 74.2601 184.754 74.2601H171.682V98.1681H184.754ZM277.863 111.068H247.763L241.829 125H230.305L257.395 64.8001H268.403L295.579 125H283.883L277.863 111.068ZM274.165 102.296L262.813 75.9801L251.547 102.296H274.165ZM347.783 64.8001C353 64.8001 357.53 65.6601 361.371 67.3801C365.27 69.1001 368.251 71.5654 370.315 74.7761C372.379 77.9867 373.411 81.7994 373.411 86.2141C373.411 90.5714 372.379 94.3841 370.315 97.6521C368.251 100.863 365.27 103.328 361.371 105.048C357.53 106.768 353 107.628 347.783 107.628H334.195V125H323.015V64.8001H347.783ZM347.267 98.1681C352.14 98.1681 355.838 97.1361 358.361 95.0721C360.884 93.0081 362.145 90.0554 362.145 86.2141C362.145 82.3727 360.884 79.4201 358.361 77.3561C355.838 75.2921 352.14 74.2601 347.267 74.2601H334.195V98.1681H347.267ZM449.506 115.626V125H404.356V64.8001H448.302V74.1741H415.536V89.8261H444.604V99.0281H415.536V115.626H449.506ZM521.137 125L508.839 107.37C508.323 107.427 507.549 107.456 506.517 107.456H492.929V125H481.749V64.8001H506.517C511.734 64.8001 516.264 65.6601 520.105 67.3801C524.004 69.1001 526.985 71.5654 529.049 74.7761C531.113 77.9867 532.145 81.7994 532.145 86.2141C532.145 90.7434 531.027 94.6421 528.791 97.9101C526.612 101.178 523.459 103.615 519.331 105.22L533.177 125H521.137ZM520.879 86.2141C520.879 82.3727 519.618 79.4201 517.095 77.3561C514.572 75.2921 510.874 74.2601 506.001 74.2601H492.929V98.2541H506.001C510.874 98.2541 514.572 97.2221 517.095 95.1581C519.618 93.0367 520.879 90.0554 520.879 86.2141ZM592.297 125.86C586.22 125.86 580.716 124.541 575.785 121.904C570.912 119.209 567.071 115.511 564.261 110.81C561.509 106.109 560.133 100.805 560.133 94.9001C560.133 88.9947 561.538 83.6914 564.347 78.9901C567.157 74.2887 570.998 70.6194 575.871 67.9821C580.802 65.2874 586.306 63.9401 592.383 63.9401C597.314 63.9401 601.815 64.8001 605.885 66.5201C609.956 68.2401 613.396 70.7341 616.205 74.0021L608.981 80.7961C604.624 76.0947 599.263 73.7441 592.899 73.7441C588.771 73.7441 585.073 74.6614 581.805 76.4961C578.537 78.2734 575.986 80.7674 574.151 83.9781C572.317 87.1887 571.399 90.8294 571.399 94.9001C571.399 98.9707 572.317 102.611 574.151 105.822C575.986 109.033 578.537 111.555 581.805 113.39C585.073 115.167 588.771 116.056 592.899 116.056C599.263 116.056 604.624 113.677 608.981 108.918L616.205 115.798C613.396 119.066 609.927 121.56 605.799 123.28C601.729 125 597.228 125.86 592.297 125.86ZM672.164 125.86C663.85 125.86 657.372 123.538 652.728 118.894C648.084 114.193 645.762 107.485 645.762 98.7701V64.8001H656.942V98.3401C656.942 110.151 662.044 116.056 672.25 116.056C682.398 116.056 687.472 110.151 687.472 98.3401V64.8001H698.48V98.7701C698.48 107.485 696.158 114.193 691.514 118.894C686.927 123.538 680.477 125.86 672.164 125.86ZM758.685 64.8001C763.902 64.8001 768.432 65.6601 772.273 67.3801C776.172 69.1001 779.153 71.5654 781.217 74.7761C783.281 77.9867 784.313 81.7994 784.313 86.2141C784.313 90.5714 783.281 94.3841 781.217 97.6521C779.153 100.863 776.172 103.328 772.273 105.048C768.432 106.768 763.902 107.628 758.685 107.628H745.097V125H733.917V64.8001H758.685ZM758.169 98.1681C763.042 98.1681 766.74 97.1361 769.263 95.0721C771.786 93.0081 773.047 90.0554 773.047 86.2141C773.047 82.3727 771.786 79.4201 769.263 77.3561C766.74 75.2921 763.042 74.2601 758.169 74.2601H745.097V98.1681H758.169ZM834.759 125.86C830.115 125.86 825.615 125.201 821.257 123.882C816.957 122.563 813.546 120.815 811.023 118.636L814.893 109.95C817.359 111.899 820.369 113.505 823.923 114.766C827.535 115.97 831.147 116.572 834.759 116.572C839.231 116.572 842.557 115.855 844.735 114.422C846.971 112.989 848.089 111.097 848.089 108.746C848.089 107.026 847.459 105.621 846.197 104.532C844.993 103.385 843.445 102.497 841.553 101.866C839.661 101.235 837.081 100.519 833.813 99.7161C829.227 98.6267 825.5 97.5374 822.633 96.4481C819.824 95.3587 817.387 93.6674 815.323 91.3741C813.317 89.0234 812.313 85.8701 812.313 81.9141C812.313 78.5887 813.202 75.5787 814.979 72.8841C816.814 70.1321 819.537 67.9534 823.149 66.3481C826.819 64.7427 831.291 63.9401 836.565 63.9401C840.235 63.9401 843.847 64.3987 847.401 65.3161C850.956 66.2334 854.023 67.5521 856.603 69.2721L853.077 77.9581C850.44 76.4101 847.688 75.2347 844.821 74.4321C841.955 73.6294 839.174 73.2281 836.479 73.2281C832.065 73.2281 828.768 73.9734 826.589 75.4641C824.468 76.9547 823.407 78.9327 823.407 81.3981C823.407 83.1181 824.009 84.5227 825.213 85.6121C826.475 86.7014 828.051 87.5614 829.943 88.1921C831.835 88.8227 834.415 89.5394 837.683 90.3421C842.155 91.3741 845.825 92.4634 848.691 93.6101C851.558 94.6994 853.995 96.3907 856.001 98.6841C858.065 100.977 859.097 104.073 859.097 107.972C859.097 111.297 858.18 114.307 856.345 117.002C854.568 119.697 851.845 121.847 848.175 123.452C844.506 125.057 840.034 125.86 834.759 125.86ZM880.2 125H923.2V131.536H880.2V125ZM964.847 74.1741V92.4921H993.915V101.952H964.847V125H953.667V64.8001H997.613V74.1741H964.847ZM1028.21 64.8001H1039.39V115.54H1070.86V125H1028.21V64.8001ZM1124.51 125.86C1116.2 125.86 1109.72 123.538 1105.08 118.894C1100.43 114.193 1098.11 107.485 1098.11 98.7701V64.8001H1109.29V98.3401C1109.29 110.151 1114.39 116.056 1124.6 116.056C1134.75 116.056 1139.82 110.151 1139.82 98.3401V64.8001H1150.83V98.7701C1150.83 107.485 1148.51 114.193 1143.86 118.894C1139.28 123.538 1132.83 125.86 1124.51 125.86ZM1197.39 74.2601H1177.44V64.8001H1228.52V74.2601H1208.57V125H1197.39V74.2601ZM1269.74 74.2601H1249.79V64.8001H1300.87V74.2601H1280.92V125H1269.74V74.2601ZM1374.19 115.626V125H1329.04V64.8001H1372.99V74.1741H1340.22V89.8261H1369.29V99.0281H1340.22V115.626H1374.19ZM1445.83 125L1433.53 107.37C1433.01 107.427 1432.24 107.456 1431.21 107.456H1417.62V125H1406.44V64.8001H1431.21C1436.42 64.8001 1440.95 65.6601 1444.79 67.3801C1448.69 69.1001 1451.67 71.5654 1453.74 74.7761C1455.8 77.9867 1456.83 81.7994 1456.83 86.2141C1456.83 90.7434 1455.72 94.6421 1453.48 97.9101C1451.3 101.178 1448.15 103.615 1444.02 105.22L1457.87 125H1445.83ZM1445.57 86.2141C1445.57 82.3727 1444.31 79.4201 1441.78 77.3561C1439.26 75.2921 1435.56 74.2601 1430.69 74.2601H1417.62V98.2541H1430.69C1435.56 98.2541 1439.26 97.2221 1441.78 95.1581C1444.31 93.0367 1445.57 90.0554 1445.57 86.2141Z" fill="#1B1918"/>
<path d="M101.851 79.5472C101.851 137.384 30.0933 135.604 30.0933 135.604L0.000976562 165.675C0.000976562 165.675 0.000976562 112.149 0.000976562 65.2664L34.8269 25.0814H34.8975C57.0612 25.7774 101.851 25.931 101.851 79.5472Z" fill="#1890FF"/>
<path d="M34.8975 25V65.2664H0.000976562L34.8269 25.0813L34.8975 25Z" fill="#005FB8"/>
<path d="M0 72.6148V65.2757C0.000903844 67.707 0.000926797 70.1564 0.000926797 72.6148H0Z" fill="#C0DFE6"/>
<path d="M0.000927538 72.6148C0.000927538 70.1564 0.000927538 67.707 0.000927538 65.2667L34.8965 65.2757L0 72.6148" fill="#0074E0"/>
</svg>
