<svg width="1419" height="141" viewBox="0 0 1419 141" fill="none" xmlns="http://www.w3.org/2000/svg">
<path d="M142.852 39.8C148.069 39.8 152.599 40.66 156.44 42.38C160.339 44.1 163.32 46.5653 165.384 49.776C167.448 52.9867 168.48 56.7993 168.48 61.214C168.48 65.5713 167.448 69.384 165.384 72.652C163.32 75.8627 160.339 78.328 156.44 80.048C152.599 81.768 148.069 82.628 142.852 82.628H129.264V100H118.084V39.8H142.852ZM142.336 73.168C147.209 73.168 150.907 72.136 153.43 70.072C155.953 68.008 157.214 65.0553 157.214 61.214C157.214 57.3727 155.953 54.42 153.43 52.356C150.907 50.292 147.209 49.26 142.336 49.26H129.264V73.168H142.336ZM235.445 86.068H205.345L199.411 100H187.887L214.977 39.8H225.985L253.161 100H241.465L235.445 86.068ZM231.747 77.296L220.395 50.98L209.129 77.296H231.747ZM305.365 39.8C310.582 39.8 315.112 40.66 318.953 42.38C322.852 44.1 325.833 46.5653 327.897 49.776C329.961 52.9867 330.993 56.7993 330.993 61.214C330.993 65.5713 329.961 69.384 327.897 72.652C325.833 75.8627 322.852 78.328 318.953 80.048C315.112 81.768 310.582 82.628 305.365 82.628H291.777V100H280.597V39.8H305.365ZM304.849 73.168C309.722 73.168 313.42 72.136 315.943 70.072C318.466 68.008 319.727 65.0553 319.727 61.214C319.727 57.3727 318.466 54.42 315.943 52.356C313.42 50.292 309.722 49.26 304.849 49.26H291.777V73.168H304.849ZM407.088 90.626V100H361.938V39.8H405.884V49.174H373.118V64.826H402.186V74.028H373.118V90.626H407.088ZM478.719 100L466.421 82.37C465.905 82.4273 465.131 82.456 464.099 82.456H450.511V100H439.331V39.8H464.099C469.316 39.8 473.846 40.66 477.687 42.38C481.586 44.1 484.567 46.5653 486.631 49.776C488.695 52.9867 489.727 56.7993 489.727 61.214C489.727 65.7433 488.609 69.642 486.373 72.91C484.194 76.178 481.041 78.6147 476.913 80.22L490.759 100H478.719ZM478.461 61.214C478.461 57.3727 477.2 54.42 474.677 52.356C472.154 50.292 468.456 49.26 463.583 49.26H450.511V73.254H463.583C468.456 73.254 472.154 72.222 474.677 70.158C477.2 68.0367 478.461 65.0553 478.461 61.214ZM549.879 100.86C543.802 100.86 538.298 99.5413 533.367 96.904C528.494 94.2093 524.653 90.5113 521.843 85.81C519.091 81.1087 517.715 75.8053 517.715 69.9C517.715 63.9947 519.12 58.6913 521.929 53.99C524.739 49.2887 528.58 45.6193 533.453 42.982C538.384 40.2873 543.888 38.94 549.965 38.94C554.896 38.94 559.397 39.8 563.467 41.52C567.538 43.24 570.978 45.734 573.787 49.002L566.563 55.796C562.206 51.0947 556.845 48.744 550.481 48.744C546.353 48.744 542.655 49.6613 539.387 51.496C536.119 53.2733 533.568 55.7673 531.733 58.978C529.899 62.1887 528.981 65.8293 528.981 69.9C528.981 73.9707 529.899 77.6113 531.733 80.822C533.568 84.0327 536.119 86.5553 539.387 88.39C542.655 90.1673 546.353 91.056 550.481 91.056C556.845 91.056 562.206 88.6767 566.563 83.918L573.787 90.798C570.978 94.066 567.509 96.56 563.381 98.28C559.311 100 554.81 100.86 549.879 100.86ZM629.746 100.86C621.432 100.86 614.954 98.538 610.31 93.894C605.666 89.1927 603.344 82.4847 603.344 73.77V39.8H614.524V73.34C614.524 85.1507 619.626 91.056 629.832 91.056C639.98 91.056 645.054 85.1507 645.054 73.34V39.8H656.062V73.77C656.062 82.4847 653.74 89.1927 649.096 93.894C644.509 98.538 638.059 100.86 629.746 100.86ZM716.267 39.8C721.484 39.8 726.014 40.66 729.855 42.38C733.754 44.1 736.735 46.5653 738.799 49.776C740.863 52.9867 741.895 56.7993 741.895 61.214C741.895 65.5713 740.863 69.384 738.799 72.652C736.735 75.8627 733.754 78.328 729.855 80.048C726.014 81.768 721.484 82.628 716.267 82.628H702.679V100H691.499V39.8H716.267ZM715.751 73.168C720.624 73.168 724.322 72.136 726.845 70.072C729.368 68.008 730.629 65.0553 730.629 61.214C730.629 57.3727 729.368 54.42 726.845 52.356C724.322 50.292 720.624 49.26 715.751 49.26H702.679V73.168H715.751ZM792.341 100.86C787.697 100.86 783.197 100.201 778.839 98.882C774.539 97.5633 771.128 95.8147 768.605 93.636L772.475 84.95C774.941 86.8993 777.951 88.5047 781.505 89.766C785.117 90.97 788.729 91.572 792.341 91.572C796.813 91.572 800.139 90.8553 802.317 89.422C804.553 87.9887 805.671 86.0967 805.671 83.746C805.671 82.026 805.041 80.6213 803.779 79.532C802.575 78.3853 801.027 77.4967 799.135 76.866C797.243 76.2353 794.663 75.5187 791.395 74.716C786.809 73.6267 783.082 72.5373 780.215 71.448C777.406 70.3587 774.969 68.6673 772.905 66.374C770.899 64.0233 769.895 60.87 769.895 56.914C769.895 53.5887 770.784 50.5787 772.561 47.884C774.396 45.132 777.119 42.9533 780.731 41.348C784.401 39.7427 788.873 38.94 794.147 38.94C797.817 38.94 801.429 39.3987 804.983 40.316C808.538 41.2333 811.605 42.552 814.185 44.272L810.659 52.958C808.022 51.41 805.27 50.2347 802.403 49.432C799.537 48.6293 796.756 48.228 794.061 48.228C789.647 48.228 786.35 48.9733 784.171 50.464C782.05 51.9547 780.989 53.9327 780.989 56.398C780.989 58.118 781.591 59.5227 782.795 60.612C784.057 61.7013 785.633 62.5613 787.525 63.192C789.417 63.8227 791.997 64.5393 795.265 65.342C799.737 66.374 803.407 67.4633 806.273 68.61C809.14 69.6993 811.577 71.3907 813.583 73.684C815.647 75.9773 816.679 79.0733 816.679 82.972C816.679 86.2973 815.762 89.3073 813.927 92.002C812.15 94.6967 809.427 96.8467 805.757 98.452C802.088 100.057 797.616 100.86 792.341 100.86ZM837.782 100H880.782V106.536H837.782V100ZM922.429 49.174V67.492H951.497V76.952H922.429V100H911.249V39.8H955.195V49.174H922.429ZM985.787 39.8H996.967V90.54H1028.44V100H985.787V39.8ZM1082.1 100.86C1073.78 100.86 1067.3 98.538 1062.66 93.894C1058.02 89.1927 1055.69 82.4847 1055.69 73.77V39.8H1066.87V73.34C1066.87 85.1507 1071.98 91.056 1082.18 91.056C1092.33 91.056 1097.4 85.1507 1097.4 73.34V39.8H1108.41V73.77C1108.41 82.4847 1106.09 89.1927 1101.45 93.894C1096.86 98.538 1090.41 100.86 1082.1 100.86ZM1154.97 49.26H1135.02V39.8H1186.1V49.26H1166.15V100H1154.97V49.26ZM1227.32 49.26H1207.37V39.8H1258.46V49.26H1238.5V100H1227.32V49.26ZM1331.78 90.626V100H1286.63V39.8H1330.57V49.174H1297.81V64.826H1326.87V74.028H1297.81V90.626H1331.78ZM1403.41 100L1391.11 82.37C1390.59 82.4273 1389.82 82.456 1388.79 82.456H1375.2V100H1364.02V39.8H1388.79C1394 39.8 1398.53 40.66 1402.38 42.38C1406.27 44.1 1409.26 46.5653 1411.32 49.776C1413.38 52.9867 1414.42 56.7993 1414.42 61.214C1414.42 65.7433 1413.3 69.642 1411.06 72.91C1408.88 76.178 1405.73 78.6147 1401.6 80.22L1415.45 100H1403.41ZM1403.15 61.214C1403.15 57.3727 1401.89 54.42 1399.37 52.356C1396.84 50.292 1393.14 49.26 1388.27 49.26H1375.2V73.254H1388.27C1393.14 73.254 1396.84 72.222 1399.37 70.158C1401.89 68.0367 1403.15 65.0553 1403.15 61.214Z" fill="#1B1918"/>
<path d="M102.433 54.5471C102.433 112.384 30.6754 110.604 30.6754 110.604L0.583008 140.675C0.583008 140.675 0.583008 87.1488 0.583008 40.2663L35.409 0.0813599H35.4795C57.6432 0.77732 102.433 0.930981 102.433 54.5471Z" fill="#1890FF"/>
<path d="M35.4795 -6.10352e-05V40.2663H0.583008L35.4089 0.0812765L35.4795 -6.10352e-05Z" fill="#005FB8"/>
<path d="M0.582031 47.6147V40.2756C0.582935 42.7069 0.582958 45.1563 0.582958 47.6147H0.582031Z" fill="#C0DFE6"/>
<path d="M0.582959 47.6147C0.582959 45.1563 0.582959 42.7069 0.582959 40.2666L35.4785 40.2756L0.582031 47.6147" fill="#0074E0"/>
</svg>
